<mxfile host="app.diagrams.net" agent="Mozilla/5.0 (X11; Ubuntu; Linux x86_64; rv:130.0) Gecko/20100101 Firefox/130.0" version="24.7.16" pages="2">
  <diagram name="Page-1" id="erjguhViY3gtUNBSqQcB">
    <mxGraphModel dx="1615" dy="1056" grid="1" gridSize="10" guides="1" tooltips="1" connect="1" arrows="1" fold="1" page="1" pageScale="1" pageWidth="850" pageHeight="1100" math="0" shadow="0">
      <root>
        <mxCell id="0" />
        <mxCell id="1" parent="0" />
        <mxCell id="120wWnULjFkNhNx4lN9--3" value="&lt;div&gt;User (Abstract)&lt;br&gt;&lt;/div&gt;&lt;div&gt;&lt;br&gt;&lt;/div&gt;" style="swimlane;fontStyle=1;align=center;verticalAlign=top;childLayout=stackLayout;horizontal=1;startSize=26;horizontalStack=0;resizeParent=1;resizeParentMax=0;resizeLast=0;collapsible=1;marginBottom=0;whiteSpace=wrap;html=1;" vertex="1" parent="1">
          <mxGeometry x="100" y="30" width="170" height="140" as="geometry" />
        </mxCell>
        <mxCell id="120wWnULjFkNhNx4lN9--4" value="&lt;li&gt;&lt;code&gt;# userName: String&lt;/code&gt;&lt;/li&gt;&lt;li&gt;&lt;code&gt;# name: String&lt;/code&gt;&lt;/li&gt;&lt;li&gt;&lt;code&gt;# email: String&lt;/code&gt;&lt;/li&gt;&lt;li&gt;&lt;code&gt;# password: String&lt;/code&gt;&lt;/li&gt;&lt;div&gt;&lt;br&gt;&lt;/div&gt;" style="text;strokeColor=none;fillColor=none;align=left;verticalAlign=top;spacingLeft=4;spacingRight=4;overflow=hidden;rotatable=0;points=[[0,0.5],[1,0.5]];portConstraint=eastwest;whiteSpace=wrap;html=1;" vertex="1" parent="120wWnULjFkNhNx4lN9--3">
          <mxGeometry y="26" width="170" height="74" as="geometry" />
        </mxCell>
        <mxCell id="120wWnULjFkNhNx4lN9--5" value="" style="line;strokeWidth=1;fillColor=none;align=left;verticalAlign=middle;spacingTop=-1;spacingLeft=3;spacingRight=3;rotatable=0;labelPosition=right;points=[];portConstraint=eastwest;strokeColor=inherit;" vertex="1" parent="120wWnULjFkNhNx4lN9--3">
          <mxGeometry y="100" width="170" height="8" as="geometry" />
        </mxCell>
        <mxCell id="120wWnULjFkNhNx4lN9--6" value="+ getters &amp;amp; setters" style="text;strokeColor=none;fillColor=none;align=left;verticalAlign=top;spacingLeft=4;spacingRight=4;overflow=hidden;rotatable=0;points=[[0,0.5],[1,0.5]];portConstraint=eastwest;whiteSpace=wrap;html=1;" vertex="1" parent="120wWnULjFkNhNx4lN9--3">
          <mxGeometry y="108" width="170" height="32" as="geometry" />
        </mxCell>
        <mxCell id="120wWnULjFkNhNx4lN9--8" value="Student" style="swimlane;fontStyle=1;align=center;verticalAlign=top;childLayout=stackLayout;horizontal=1;startSize=26;horizontalStack=0;resizeParent=1;resizeParentMax=0;resizeLast=0;collapsible=1;marginBottom=0;whiteSpace=wrap;html=1;" vertex="1" parent="1">
          <mxGeometry y="220" width="180" height="180" as="geometry" />
        </mxCell>
        <mxCell id="120wWnULjFkNhNx4lN9--9" value="- enrolledCourses: List&amp;lt;Course&amp;gt;" style="text;strokeColor=none;fillColor=none;align=left;verticalAlign=top;spacingLeft=4;spacingRight=4;overflow=hidden;rotatable=0;points=[[0,0.5],[1,0.5]];portConstraint=eastwest;whiteSpace=wrap;html=1;" vertex="1" parent="120wWnULjFkNhNx4lN9--8">
          <mxGeometry y="26" width="180" height="34" as="geometry" />
        </mxCell>
        <mxCell id="120wWnULjFkNhNx4lN9--10" value="" style="line;strokeWidth=1;fillColor=none;align=left;verticalAlign=middle;spacingTop=-1;spacingLeft=3;spacingRight=3;rotatable=0;labelPosition=right;points=[];portConstraint=eastwest;strokeColor=inherit;" vertex="1" parent="120wWnULjFkNhNx4lN9--8">
          <mxGeometry y="60" width="180" height="8" as="geometry" />
        </mxCell>
        <mxCell id="120wWnULjFkNhNx4lN9--11" value="&lt;li&gt;&lt;font style=&quot;font-size: 11px;&quot;&gt;&lt;code&gt;+ getEnrolledCourses(): List&amp;lt;Course&amp;gt;&lt;/code&gt;&lt;/font&gt;&lt;/li&gt;&lt;li&gt;&lt;font style=&quot;font-size: 11px;&quot;&gt;&lt;code&gt;+ addCourse(course: Course): void&lt;/code&gt;&lt;/font&gt;&lt;/li&gt;&lt;li&gt;&lt;font style=&quot;font-size: 11px;&quot;&gt;&lt;code&gt;+ removeCourse(course: Course): void&lt;/code&gt;&lt;/font&gt;&lt;/li&gt;" style="text;strokeColor=none;fillColor=none;align=left;verticalAlign=top;spacingLeft=4;spacingRight=4;overflow=hidden;rotatable=0;points=[[0,0.5],[1,0.5]];portConstraint=eastwest;whiteSpace=wrap;html=1;" vertex="1" parent="120wWnULjFkNhNx4lN9--8">
          <mxGeometry y="68" width="180" height="112" as="geometry" />
        </mxCell>
        <mxCell id="120wWnULjFkNhNx4lN9--12" value="&lt;div&gt;Instructor&lt;/div&gt;&lt;div&gt;&lt;br&gt;&lt;/div&gt;" style="swimlane;fontStyle=1;align=center;verticalAlign=top;childLayout=stackLayout;horizontal=1;startSize=26;horizontalStack=0;resizeParent=1;resizeParentMax=0;resizeLast=0;collapsible=1;marginBottom=0;whiteSpace=wrap;html=1;" vertex="1" parent="1">
          <mxGeometry x="220" y="220" width="190" height="130" as="geometry" />
        </mxCell>
        <mxCell id="120wWnULjFkNhNx4lN9--13" value="- courses: List&amp;lt;Course&amp;gt;" style="text;strokeColor=none;fillColor=none;align=left;verticalAlign=top;spacingLeft=4;spacingRight=4;overflow=hidden;rotatable=0;points=[[0,0.5],[1,0.5]];portConstraint=eastwest;whiteSpace=wrap;html=1;" vertex="1" parent="120wWnULjFkNhNx4lN9--12">
          <mxGeometry y="26" width="190" height="34" as="geometry" />
        </mxCell>
        <mxCell id="120wWnULjFkNhNx4lN9--14" value="" style="line;strokeWidth=1;fillColor=none;align=left;verticalAlign=middle;spacingTop=-1;spacingLeft=3;spacingRight=3;rotatable=0;labelPosition=right;points=[];portConstraint=eastwest;strokeColor=inherit;" vertex="1" parent="120wWnULjFkNhNx4lN9--12">
          <mxGeometry y="60" width="190" height="8" as="geometry" />
        </mxCell>
        <mxCell id="120wWnULjFkNhNx4lN9--15" value="&lt;div&gt;+ getCourses(): List&amp;lt;Course&amp;gt;&lt;/div&gt;&lt;div&gt;+ addCourse(course:Course)&lt;/div&gt;&lt;div&gt;+ removeCourse(course:Course)&lt;br&gt;&lt;/div&gt;" style="text;strokeColor=none;fillColor=none;align=left;verticalAlign=top;spacingLeft=4;spacingRight=4;overflow=hidden;rotatable=0;points=[[0,0.5],[1,0.5]];portConstraint=eastwest;whiteSpace=wrap;html=1;" vertex="1" parent="120wWnULjFkNhNx4lN9--12">
          <mxGeometry y="68" width="190" height="62" as="geometry" />
        </mxCell>
        <mxCell id="120wWnULjFkNhNx4lN9--16" value="Assignment" style="swimlane;fontStyle=1;align=center;verticalAlign=top;childLayout=stackLayout;horizontal=1;startSize=26;horizontalStack=0;resizeParent=1;resizeParentMax=0;resizeLast=0;collapsible=1;marginBottom=0;whiteSpace=wrap;html=1;" vertex="1" parent="1">
          <mxGeometry x="370" y="30" width="180" height="140" as="geometry" />
        </mxCell>
        <mxCell id="120wWnULjFkNhNx4lN9--17" value="&lt;div&gt;# course: Course&lt;/div&gt;&lt;div&gt;# name: String&lt;/div&gt;&lt;div&gt;# publishDate: Date&lt;br&gt;&lt;/div&gt;&lt;div&gt;# dueDate: Date&lt;br&gt;&lt;/div&gt;" style="text;strokeColor=none;fillColor=none;align=left;verticalAlign=top;spacingLeft=4;spacingRight=4;overflow=hidden;rotatable=0;points=[[0,0.5],[1,0.5]];portConstraint=eastwest;whiteSpace=wrap;html=1;" vertex="1" parent="120wWnULjFkNhNx4lN9--16">
          <mxGeometry y="26" width="180" height="74" as="geometry" />
        </mxCell>
        <mxCell id="120wWnULjFkNhNx4lN9--18" value="" style="line;strokeWidth=1;fillColor=none;align=left;verticalAlign=middle;spacingTop=-1;spacingLeft=3;spacingRight=3;rotatable=0;labelPosition=right;points=[];portConstraint=eastwest;strokeColor=inherit;" vertex="1" parent="120wWnULjFkNhNx4lN9--16">
          <mxGeometry y="100" width="180" height="8" as="geometry" />
        </mxCell>
        <mxCell id="120wWnULjFkNhNx4lN9--19" value="+ getters &amp;amp; setters" style="text;strokeColor=none;fillColor=none;align=left;verticalAlign=top;spacingLeft=4;spacingRight=4;overflow=hidden;rotatable=0;points=[[0,0.5],[1,0.5]];portConstraint=eastwest;whiteSpace=wrap;html=1;" vertex="1" parent="120wWnULjFkNhNx4lN9--16">
          <mxGeometry y="108" width="180" height="32" as="geometry" />
        </mxCell>
        <mxCell id="120wWnULjFkNhNx4lN9--20" value="Course" style="swimlane;fontStyle=1;align=center;verticalAlign=top;childLayout=stackLayout;horizontal=1;startSize=26;horizontalStack=0;resizeParent=1;resizeParentMax=0;resizeLast=0;collapsible=1;marginBottom=0;whiteSpace=wrap;html=1;" vertex="1" parent="1">
          <mxGeometry x="620" y="140" width="190" height="190" as="geometry" />
        </mxCell>
        <mxCell id="120wWnULjFkNhNx4lN9--21" value="&lt;div&gt;# name: String&lt;/div&gt;&lt;div&gt;# courseNumber: String&lt;/div&gt;&lt;div&gt;# description: String&lt;/div&gt;&lt;div&gt;# instructor: Instructor&lt;/div&gt;&lt;div&gt;- enrolledStudents: List&amp;lt;Student&amp;gt;&lt;br&gt;&lt;/div&gt;" style="text;strokeColor=none;fillColor=none;align=left;verticalAlign=top;spacingLeft=4;spacingRight=4;overflow=hidden;rotatable=0;points=[[0,0.5],[1,0.5]];portConstraint=eastwest;whiteSpace=wrap;html=1;" vertex="1" parent="120wWnULjFkNhNx4lN9--20">
          <mxGeometry y="26" width="190" height="84" as="geometry" />
        </mxCell>
        <mxCell id="120wWnULjFkNhNx4lN9--22" value="" style="line;strokeWidth=1;fillColor=none;align=left;verticalAlign=middle;spacingTop=-1;spacingLeft=3;spacingRight=3;rotatable=0;labelPosition=right;points=[];portConstraint=eastwest;strokeColor=inherit;" vertex="1" parent="120wWnULjFkNhNx4lN9--20">
          <mxGeometry y="110" width="190" height="8" as="geometry" />
        </mxCell>
        <mxCell id="120wWnULjFkNhNx4lN9--23" value="&lt;div&gt;+ getters &amp;amp; setters&lt;/div&gt;&lt;div&gt;+ enrollStudent(student: Student)&lt;br&gt;&lt;/div&gt;+ unenrollStudent(student: Student)" style="text;strokeColor=none;fillColor=none;align=left;verticalAlign=top;spacingLeft=4;spacingRight=4;overflow=hidden;rotatable=0;points=[[0,0.5],[1,0.5]];portConstraint=eastwest;whiteSpace=wrap;html=1;" vertex="1" parent="120wWnULjFkNhNx4lN9--20">
          <mxGeometry y="118" width="190" height="72" as="geometry" />
        </mxCell>
        <mxCell id="120wWnULjFkNhNx4lN9--24" value="LogInController" style="swimlane;fontStyle=1;align=center;verticalAlign=top;childLayout=stackLayout;horizontal=1;startSize=26;horizontalStack=0;resizeParent=1;resizeParentMax=0;resizeLast=0;collapsible=1;marginBottom=0;whiteSpace=wrap;html=1;" vertex="1" parent="1">
          <mxGeometry x="340" y="450" width="190" height="270" as="geometry" />
        </mxCell>
        <mxCell id="120wWnULjFkNhNx4lN9--25" value="&lt;div&gt;- final userRepository: UserRepository&lt;/div&gt;&lt;div&gt;- final userController: UserController&lt;br&gt;&lt;/div&gt;" style="text;strokeColor=none;fillColor=none;align=left;verticalAlign=top;spacingLeft=4;spacingRight=4;overflow=hidden;rotatable=0;points=[[0,0.5],[1,0.5]];portConstraint=eastwest;whiteSpace=wrap;html=1;" vertex="1" parent="120wWnULjFkNhNx4lN9--24">
          <mxGeometry y="26" width="190" height="74" as="geometry" />
        </mxCell>
        <mxCell id="120wWnULjFkNhNx4lN9--26" value="" style="line;strokeWidth=1;fillColor=none;align=left;verticalAlign=middle;spacingTop=-1;spacingLeft=3;spacingRight=3;rotatable=0;labelPosition=right;points=[];portConstraint=eastwest;strokeColor=inherit;" vertex="1" parent="120wWnULjFkNhNx4lN9--24">
          <mxGeometry y="100" width="190" height="8" as="geometry" />
        </mxCell>
        <mxCell id="120wWnULjFkNhNx4lN9--27" value="&lt;div&gt;+ isStudentLoginValid (userName:String, password:String): boolean&lt;/div&gt;&lt;div&gt;+ isInstructorLoginValid (userName:String, password: String): boolean&lt;br&gt;&lt;/div&gt;" style="text;strokeColor=none;fillColor=none;align=left;verticalAlign=top;spacingLeft=4;spacingRight=4;overflow=hidden;rotatable=0;points=[[0,0.5],[1,0.5]];portConstraint=eastwest;whiteSpace=wrap;html=1;" vertex="1" parent="120wWnULjFkNhNx4lN9--24">
          <mxGeometry y="108" width="190" height="162" as="geometry" />
        </mxCell>
        <mxCell id="120wWnULjFkNhNx4lN9--28" value="&lt;div&gt;RegisterController&lt;/div&gt;&lt;div&gt;&lt;br&gt;&lt;/div&gt;" style="swimlane;fontStyle=1;align=center;verticalAlign=top;childLayout=stackLayout;horizontal=1;startSize=26;horizontalStack=0;resizeParent=1;resizeParentMax=0;resizeLast=0;collapsible=1;marginBottom=0;whiteSpace=wrap;html=1;" vertex="1" parent="1">
          <mxGeometry x="610" y="460" width="190" height="270" as="geometry" />
        </mxCell>
        <mxCell id="120wWnULjFkNhNx4lN9--29" value="&lt;div&gt;- final userRepository: UserRepository&lt;/div&gt;&lt;div&gt;- final userController: UserController&lt;br&gt;&lt;/div&gt;" style="text;strokeColor=none;fillColor=none;align=left;verticalAlign=top;spacingLeft=4;spacingRight=4;overflow=hidden;rotatable=0;points=[[0,0.5],[1,0.5]];portConstraint=eastwest;whiteSpace=wrap;html=1;" vertex="1" parent="120wWnULjFkNhNx4lN9--28">
          <mxGeometry y="26" width="190" height="74" as="geometry" />
        </mxCell>
        <mxCell id="120wWnULjFkNhNx4lN9--30" value="" style="line;strokeWidth=1;fillColor=none;align=left;verticalAlign=middle;spacingTop=-1;spacingLeft=3;spacingRight=3;rotatable=0;labelPosition=right;points=[];portConstraint=eastwest;strokeColor=inherit;" vertex="1" parent="120wWnULjFkNhNx4lN9--28">
          <mxGeometry y="100" width="190" height="8" as="geometry" />
        </mxCell>
        <mxCell id="120wWnULjFkNhNx4lN9--31" value="&lt;div&gt;+ isStudentLoginValid (userName:String, password:String): boolean&lt;/div&gt;&lt;div&gt;+ isInstructorLoginValid (userName:String, password: String): boolean&lt;br&gt;&lt;/div&gt;" style="text;strokeColor=none;fillColor=none;align=left;verticalAlign=top;spacingLeft=4;spacingRight=4;overflow=hidden;rotatable=0;points=[[0,0.5],[1,0.5]];portConstraint=eastwest;whiteSpace=wrap;html=1;" vertex="1" parent="120wWnULjFkNhNx4lN9--28">
          <mxGeometry y="108" width="190" height="162" as="geometry" />
        </mxCell>
        <mxCell id="120wWnULjFkNhNx4lN9--32" value="UserController" style="swimlane;fontStyle=1;align=center;verticalAlign=top;childLayout=stackLayout;horizontal=1;startSize=26;horizontalStack=0;resizeParent=1;resizeParentMax=0;resizeLast=0;collapsible=1;marginBottom=0;whiteSpace=wrap;html=1;" vertex="1" parent="1">
          <mxGeometry x="20" y="450" width="190" height="270" as="geometry" />
        </mxCell>
        <mxCell id="120wWnULjFkNhNx4lN9--33" value="&lt;div&gt;- final userRepository: UserRepository&lt;/div&gt;&lt;div&gt;- final userController: UserController&lt;br&gt;&lt;/div&gt;" style="text;strokeColor=none;fillColor=none;align=left;verticalAlign=top;spacingLeft=4;spacingRight=4;overflow=hidden;rotatable=0;points=[[0,0.5],[1,0.5]];portConstraint=eastwest;whiteSpace=wrap;html=1;" vertex="1" parent="120wWnULjFkNhNx4lN9--32">
          <mxGeometry y="26" width="190" height="74" as="geometry" />
        </mxCell>
        <mxCell id="120wWnULjFkNhNx4lN9--34" value="" style="line;strokeWidth=1;fillColor=none;align=left;verticalAlign=middle;spacingTop=-1;spacingLeft=3;spacingRight=3;rotatable=0;labelPosition=right;points=[];portConstraint=eastwest;strokeColor=inherit;" vertex="1" parent="120wWnULjFkNhNx4lN9--32">
          <mxGeometry y="100" width="190" height="8" as="geometry" />
        </mxCell>
        <mxCell id="120wWnULjFkNhNx4lN9--35" value="&lt;div&gt;+ isStudentLoginValid (userName:String, password:String): boolean&lt;/div&gt;&lt;div&gt;+ isInstructorLoginValid (userName:String, password: String): boolean&lt;br&gt;&lt;/div&gt;" style="text;strokeColor=none;fillColor=none;align=left;verticalAlign=top;spacingLeft=4;spacingRight=4;overflow=hidden;rotatable=0;points=[[0,0.5],[1,0.5]];portConstraint=eastwest;whiteSpace=wrap;html=1;" vertex="1" parent="120wWnULjFkNhNx4lN9--32">
          <mxGeometry y="108" width="190" height="162" as="geometry" />
        </mxCell>
        <mxCell id="120wWnULjFkNhNx4lN9--36" value="&lt;div&gt;UserRepository&lt;/div&gt;&lt;div&gt;&lt;br&gt;&lt;/div&gt;" style="swimlane;fontStyle=1;align=center;verticalAlign=top;childLayout=stackLayout;horizontal=1;startSize=26;horizontalStack=0;resizeParent=1;resizeParentMax=0;resizeLast=0;collapsible=1;marginBottom=0;whiteSpace=wrap;html=1;" vertex="1" parent="1">
          <mxGeometry x="190" y="780" width="190" height="270" as="geometry" />
        </mxCell>
        <mxCell id="120wWnULjFkNhNx4lN9--37" value="&lt;div&gt;- final userRepository: UserRepository&lt;/div&gt;&lt;div&gt;- final userController: UserController&lt;br&gt;&lt;/div&gt;" style="text;strokeColor=none;fillColor=none;align=left;verticalAlign=top;spacingLeft=4;spacingRight=4;overflow=hidden;rotatable=0;points=[[0,0.5],[1,0.5]];portConstraint=eastwest;whiteSpace=wrap;html=1;" vertex="1" parent="120wWnULjFkNhNx4lN9--36">
          <mxGeometry y="26" width="190" height="74" as="geometry" />
        </mxCell>
        <mxCell id="120wWnULjFkNhNx4lN9--38" value="" style="line;strokeWidth=1;fillColor=none;align=left;verticalAlign=middle;spacingTop=-1;spacingLeft=3;spacingRight=3;rotatable=0;labelPosition=right;points=[];portConstraint=eastwest;strokeColor=inherit;" vertex="1" parent="120wWnULjFkNhNx4lN9--36">
          <mxGeometry y="100" width="190" height="8" as="geometry" />
        </mxCell>
        <mxCell id="120wWnULjFkNhNx4lN9--39" value="&lt;div&gt;+ isStudentLoginValid (userName:String, password:String): boolean&lt;/div&gt;&lt;div&gt;+ isInstructorLoginValid (userName:String, password: String): boolean&lt;br&gt;&lt;/div&gt;" style="text;strokeColor=none;fillColor=none;align=left;verticalAlign=top;spacingLeft=4;spacingRight=4;overflow=hidden;rotatable=0;points=[[0,0.5],[1,0.5]];portConstraint=eastwest;whiteSpace=wrap;html=1;" vertex="1" parent="120wWnULjFkNhNx4lN9--36">
          <mxGeometry y="108" width="190" height="162" as="geometry" />
        </mxCell>
        <mxCell id="120wWnULjFkNhNx4lN9--40" value="&lt;div&gt;Database&lt;/div&gt;" style="strokeWidth=2;html=1;shape=mxgraph.flowchart.database;whiteSpace=wrap;" vertex="1" parent="1">
          <mxGeometry x="480" y="880" width="200" height="135" as="geometry" />
        </mxCell>
      </root>
    </mxGraphModel>
  </diagram>
  <diagram id="VlnXYXlo8fWisMATLTbr" name="Page-2">
    <mxGraphModel dx="888" dy="581" grid="1" gridSize="10" guides="1" tooltips="1" connect="1" arrows="1" fold="1" page="1" pageScale="1" pageWidth="850" pageHeight="1100" math="0" shadow="0">
      <root>
        <mxCell id="0" />
        <mxCell id="1" parent="0" />
      </root>
    </mxGraphModel>
  </diagram>
</mxfile>
